<svg width="69" height="19" viewBox="0 0 69 19" fill="none" xmlns="http://www.w3.org/2000/svg">
<path d="M0 0H69L60.5 9.5L69 19H0V0Z" fill="#FFEB3B"/>
<path d="M17.0615 14L20.9375 8.77734L17.5195 3.97852L19.0986 3.97852L20.917 6.54883C21.2952 7.08203 21.5641 7.49219 21.7236 7.7793C21.9469 7.41471 22.2113 7.03418 22.5166 6.6377L24.5332 3.97852L25.9756 3.97852L22.4551 8.70215L26.249 14L24.6084 14L22.0859 10.4248C21.9447 10.2197 21.7988 9.99642 21.6484 9.75488C21.4251 10.1195 21.2656 10.3701 21.1699 10.5068L18.6543 14L17.0615 14ZM27.2607 6.74023L28.4912 6.74023L28.4912 12.2773L31.9023 6.74023L33.2285 6.74023L33.2285 14L31.998 14L31.998 8.49707L28.5869 14L27.2607 14L27.2607 6.74023ZM34.418 6.74023L40.3174 6.74023L40.3174 7.75879L37.9795 7.75879L37.9795 14L36.7559 14L36.7559 7.75879L34.418 7.75879L34.418 6.74023Z" fill="#050505"/>
</svg>
