<svg width="42" height="43" viewBox="0 0 42 43" fill="none" xmlns="http://www.w3.org/2000/svg">
<path d="M7.33333 5.634V10.686L2.55172 11.8267L4.18391 16.9486L0 19.6259L3.12644 22.7223L0.988506 26.7731L5.4023 29.6367V34.549L9.6092 34.9215L10.3218 39.5311L14.9425 38.0179L18 43L21.4943 39.5311L25.1954 42.3481L28.046 38.0179L32.6667 39.5311L33.4483 34.9215L38.6437 34.549L37.3793 29.6367L42 27.4017L39.2184 22.1402L42 18.974L38.6437 16.3898L40.1609 11.8267L34.9425 10.104L35.7241 5.19166L30.6897 5.634L29.2644 1.51326L24.3448 3.84136L21.4943 0L18 3.84136L13.7931 1.51326L11.954 6.28587L7.33333 5.634Z" fill="#C62828"/>
<path d="M8.06641 26V15.9785H9.42676L14.6904 23.8467V15.9785H15.9619V26H14.6016L9.33789 18.125V26H8.06641ZM23.0098 23.6621L24.2812 23.8193C24.0807 24.5622 23.7093 25.1387 23.167 25.5488C22.6247 25.959 21.932 26.1641 21.0889 26.1641C20.027 26.1641 19.1839 25.8382 18.5596 25.1865C17.9398 24.5303 17.6299 23.612 17.6299 22.4316C17.6299 21.2103 17.9443 20.2624 18.5732 19.5879C19.2021 18.9134 20.0179 18.5762 21.0205 18.5762C21.9912 18.5762 22.7842 18.9066 23.3994 19.5674C24.0146 20.2282 24.3223 21.1579 24.3223 22.3564C24.3223 22.4294 24.32 22.5387 24.3154 22.6846H18.9014C18.9469 23.4821 19.1725 24.0928 19.5781 24.5166C19.9837 24.9404 20.4896 25.1523 21.0957 25.1523C21.5469 25.1523 21.932 25.0339 22.251 24.7969C22.57 24.5599 22.8229 24.1816 23.0098 23.6621ZM18.9697 21.6729H23.0234C22.9688 21.0622 22.8138 20.6042 22.5586 20.2988C22.1667 19.8249 21.6585 19.5879 21.0342 19.5879C20.4691 19.5879 19.9928 19.777 19.6055 20.1553C19.2227 20.5335 19.0107 21.0394 18.9697 21.6729ZM27.1729 26L24.9512 18.7402H26.2227L27.3779 22.9307L27.8086 24.4893C27.8268 24.4118 27.9521 23.9128 28.1846 22.9922L29.3398 18.7402H30.6045L31.6914 22.9512L32.0537 24.3389L32.4707 22.9375L33.7148 18.7402H34.9111L32.6416 26H31.3633L30.208 21.6523L29.9277 20.415L28.458 26H27.1729Z" fill="white"/>
</svg>
