<svg width="212" height="55" viewBox="0 0 212 55" fill="none" xmlns="http://www.w3.org/2000/svg">
<path d="M22.9108 40.6684C17.6236 30.7991 20.7078 21.2822 22.9108 17.7575L39.6534 20.8417C38.4785 22.3103 33.485 28.3318 22.9108 40.6684Z" fill="#FF6F00"/>
<path d="M67.8514 15.9951L51.99 36.2624C53.3118 36.8499 58.5989 38.5535 69.1732 40.6684C73.7554 29.3892 70.2013 19.5199 67.8514 15.9951Z" fill="#FF6F00"/>
<path d="M67.8514 41.9902L40.9752 36.2624C41.8564 38.7591 44.4118 45.8674 47.5841 54.3268C56.7484 55.7367 64.9141 46.6898 67.8514 41.9902Z" fill="#FF6F00"/>
<path d="M36.1286 30.0941L44.9405 54.3268C34.3663 55.0317 26.4356 47.2773 23.792 43.3119L36.1286 30.0941Z" fill="#FF6F00"/>
<path d="M43.1782 2.77734C34.0138 4.18724 26.1419 11.883 23.3514 15.5546L49.7871 20.4011C49.7871 19.6668 48.4653 15.114 43.1782 2.77734Z" fill="#FF6F00"/>
<path d="M66.9702 14.6734C62.388 6.91893 50.9619 3.51167 45.8217 2.77734L54.6335 28.7724C54.9273 28.3318 57.8058 24.8952 66.9702 14.6734Z" fill="#FF6F00"/>
<path fill-rule="evenodd" clip-rule="evenodd" d="M17.9471 5.00008C8.0303 5.02861 0 13.0765 0 23V36C0 45.9235 8.0303 53.9714 17.9471 53.9999V51.9999C9.13487 51.9714 2 44.8189 2 36V23C2 14.1811 9.13487 7.02861 17.9471 7.00009V5.00008ZM85.2487 52H194C202.837 52 210 44.8366 210 36V23C210 14.1634 202.837 7 194 7H85.2487V5H194C203.941 5 212 13.0589 212 23V36C212 45.9411 203.941 54 194 54H85.2487V52Z" fill="#FF6F00"/>
<path d="M85.6504 31.8076L88.1816 31.5615C88.334 32.4111 88.6416 33.0352 89.1045 33.4336C89.5732 33.832 90.2031 34.0312 90.9941 34.0312C91.832 34.0312 92.4619 33.8555 92.8838 33.5039C93.3115 33.1465 93.5254 32.7305 93.5254 32.2559C93.5254 31.9512 93.4346 31.6934 93.2529 31.4824C93.0771 31.2656 92.7666 31.0781 92.3213 30.9199C92.0166 30.8145 91.3223 30.627 90.2383 30.3574C88.8438 30.0117 87.8652 29.5869 87.3027 29.083C86.5117 28.374 86.1162 27.5098 86.1162 26.4902C86.1162 25.834 86.3008 25.2217 86.6699 24.6533C87.0449 24.0791 87.5811 23.6426 88.2783 23.3438C88.9814 23.0449 89.8281 22.8955 90.8184 22.8955C92.4355 22.8955 93.6514 23.25 94.4658 23.959C95.2861 24.668 95.7168 25.6143 95.7578 26.7979L93.1562 26.9121C93.0449 26.25 92.8047 25.7754 92.4355 25.4883C92.0723 25.1953 91.5244 25.0488 90.792 25.0488C90.0361 25.0488 89.4443 25.2041 89.0166 25.5146C88.7412 25.7139 88.6035 25.9805 88.6035 26.3145C88.6035 26.6191 88.7324 26.8799 88.9902 27.0967C89.3184 27.3721 90.1152 27.6592 91.3809 27.958C92.6465 28.2568 93.5811 28.5674 94.1846 28.8896C94.7939 29.2061 95.2686 29.6426 95.6084 30.1992C95.9541 30.75 96.127 31.4326 96.127 32.2471C96.127 32.9854 95.9219 33.6768 95.5117 34.3213C95.1016 34.9658 94.5215 35.4463 93.7715 35.7627C93.0215 36.0732 92.0869 36.2285 90.9678 36.2285C89.3389 36.2285 88.0879 35.8535 87.2148 35.1035C86.3418 34.3477 85.8203 33.249 85.6504 31.8076ZM98.1133 26.666H100.39V27.9404C101.204 26.9502 102.174 26.4551 103.299 26.4551C103.896 26.4551 104.415 26.5781 104.854 26.8242C105.294 27.0703 105.654 27.4424 105.936 27.9404C106.346 27.4424 106.788 27.0703 107.263 26.8242C107.737 26.5781 108.244 26.4551 108.783 26.4551C109.469 26.4551 110.049 26.5957 110.523 26.877C110.998 27.1523 111.353 27.5596 111.587 28.0986C111.757 28.4971 111.842 29.1416 111.842 30.0322V36H109.372V30.665C109.372 29.7393 109.287 29.1416 109.117 28.8721C108.889 28.5205 108.537 28.3447 108.062 28.3447C107.717 28.3447 107.392 28.4502 107.087 28.6611C106.782 28.8721 106.562 29.1826 106.428 29.5928C106.293 29.9971 106.226 30.6387 106.226 31.5176V36H103.756V30.8848C103.756 29.9766 103.712 29.3906 103.624 29.127C103.536 28.8633 103.398 28.667 103.211 28.5381C103.029 28.4092 102.78 28.3447 102.464 28.3447C102.083 28.3447 101.74 28.4473 101.436 28.6523C101.131 28.8574 100.911 29.1533 100.776 29.54C100.647 29.9268 100.583 30.5684 100.583 31.4648V36H98.1133V26.666ZM116.157 29.5137L113.916 29.1094C114.168 28.207 114.602 27.5391 115.217 27.1055C115.832 26.6719 116.746 26.4551 117.959 26.4551C119.061 26.4551 119.881 26.5869 120.42 26.8506C120.959 27.1084 121.337 27.4395 121.554 27.8438C121.776 28.2422 121.888 28.9775 121.888 30.0498L121.861 32.9326C121.861 33.7529 121.899 34.3594 121.976 34.752C122.058 35.1387 122.207 35.5547 122.424 36H119.98C119.916 35.8359 119.837 35.5928 119.743 35.2705C119.702 35.124 119.673 35.0273 119.655 34.9805C119.233 35.3906 118.782 35.6982 118.302 35.9033C117.821 36.1084 117.309 36.2109 116.764 36.2109C115.803 36.2109 115.044 35.9502 114.487 35.4287C113.937 34.9072 113.661 34.248 113.661 33.4512C113.661 32.9238 113.787 32.4551 114.039 32.0449C114.291 31.6289 114.643 31.3125 115.094 31.0957C115.551 30.873 116.207 30.6797 117.062 30.5156C118.217 30.2988 119.017 30.0967 119.462 29.9092V29.6631C119.462 29.1885 119.345 28.8516 119.11 28.6523C118.876 28.4473 118.434 28.3447 117.783 28.3447C117.344 28.3447 117.001 28.4326 116.755 28.6084C116.509 28.7783 116.31 29.0801 116.157 29.5137ZM119.462 31.5176C119.146 31.623 118.645 31.749 117.959 31.8955C117.273 32.042 116.825 32.1855 116.614 32.3262C116.292 32.5547 116.131 32.8447 116.131 33.1963C116.131 33.542 116.26 33.8408 116.518 34.0928C116.775 34.3447 117.104 34.4707 117.502 34.4707C117.947 34.4707 118.372 34.3242 118.776 34.0312C119.075 33.8086 119.271 33.5361 119.365 33.2139C119.43 33.0029 119.462 32.6016 119.462 32.0098V31.5176ZM126.695 36H124.226V26.666H126.52V27.9932C126.912 27.3662 127.264 26.9531 127.574 26.7539C127.891 26.5547 128.248 26.4551 128.646 26.4551C129.209 26.4551 129.751 26.6104 130.272 26.9209L129.508 29.0742C129.092 28.8047 128.705 28.6699 128.348 28.6699C128.002 28.6699 127.709 28.7666 127.469 28.96C127.229 29.1475 127.038 29.4902 126.897 29.9883C126.763 30.4863 126.695 31.5293 126.695 33.1172V36ZM135.625 26.666V28.6348H133.938V32.3965C133.938 33.1582 133.952 33.6035 133.981 33.7324C134.017 33.8555 134.09 33.958 134.201 34.04C134.318 34.1221 134.459 34.1631 134.623 34.1631C134.852 34.1631 135.183 34.084 135.616 33.9258L135.827 35.8418C135.253 36.0879 134.603 36.2109 133.876 36.2109C133.431 36.2109 133.029 36.1377 132.672 35.9912C132.314 35.8389 132.051 35.6455 131.881 35.4111C131.717 35.1709 131.603 34.8486 131.538 34.4443C131.485 34.1572 131.459 33.5771 131.459 32.7041V28.6348H130.325V26.666H131.459V24.8115L133.938 23.3701V26.666H135.625ZM137.365 36V23.1152H139.967V28.1865H145.064V23.1152H147.666V36H145.064V30.3662H139.967V36H137.365ZM149.775 31.2012C149.775 30.3809 149.978 29.5869 150.382 28.8193C150.786 28.0518 151.357 27.4658 152.096 27.0615C152.84 26.6572 153.669 26.4551 154.583 26.4551C155.995 26.4551 157.152 26.915 158.055 27.835C158.957 28.749 159.408 29.9062 159.408 31.3066C159.408 32.7188 158.951 33.8906 158.037 34.8223C157.129 35.748 155.983 36.2109 154.601 36.2109C153.745 36.2109 152.928 36.0176 152.148 35.6309C151.375 35.2441 150.786 34.6787 150.382 33.9346C149.978 33.1846 149.775 32.2734 149.775 31.2012ZM152.307 31.333C152.307 32.2588 152.526 32.9678 152.966 33.46C153.405 33.9521 153.947 34.1982 154.592 34.1982C155.236 34.1982 155.775 33.9521 156.209 33.46C156.648 32.9678 156.868 32.2529 156.868 31.3154C156.868 30.4014 156.648 29.6982 156.209 29.2061C155.775 28.7139 155.236 28.4678 154.592 28.4678C153.947 28.4678 153.405 28.7139 152.966 29.2061C152.526 29.6982 152.307 30.4072 152.307 31.333ZM161.166 26.666H163.442V27.9404C164.257 26.9502 165.227 26.4551 166.352 26.4551C166.949 26.4551 167.468 26.5781 167.907 26.8242C168.347 27.0703 168.707 27.4424 168.988 27.9404C169.398 27.4424 169.841 27.0703 170.315 26.8242C170.79 26.5781 171.297 26.4551 171.836 26.4551C172.521 26.4551 173.102 26.5957 173.576 26.877C174.051 27.1523 174.405 27.5596 174.64 28.0986C174.81 28.4971 174.895 29.1416 174.895 30.0322V36H172.425V30.665C172.425 29.7393 172.34 29.1416 172.17 28.8721C171.941 28.5205 171.59 28.3447 171.115 28.3447C170.77 28.3447 170.444 28.4502 170.14 28.6611C169.835 28.8721 169.615 29.1826 169.48 29.5928C169.346 29.9971 169.278 30.6387 169.278 31.5176V36H166.809V30.8848C166.809 29.9766 166.765 29.3906 166.677 29.127C166.589 28.8633 166.451 28.667 166.264 28.5381C166.082 28.4092 165.833 28.3447 165.517 28.3447C165.136 28.3447 164.793 28.4473 164.488 28.6523C164.184 28.8574 163.964 29.1533 163.829 29.54C163.7 29.9268 163.636 30.5684 163.636 31.4648V36H161.166V26.666ZM182.77 33.0293L185.23 33.4424C184.914 34.3447 184.413 35.0332 183.728 35.5078C183.048 35.9766 182.195 36.2109 181.17 36.2109C179.547 36.2109 178.346 35.6807 177.566 34.6201C176.951 33.7705 176.644 32.6982 176.644 31.4033C176.644 29.8564 177.048 28.6465 177.856 27.7734C178.665 26.8945 179.688 26.4551 180.924 26.4551C182.312 26.4551 183.408 26.915 184.211 27.835C185.014 28.749 185.397 30.1523 185.362 32.0449H179.175C179.192 32.7773 179.392 33.3486 179.772 33.7588C180.153 34.1631 180.628 34.3652 181.196 34.3652C181.583 34.3652 181.908 34.2598 182.172 34.0488C182.436 33.8379 182.635 33.498 182.77 33.0293ZM182.91 30.5332C182.893 29.8184 182.708 29.2764 182.356 28.9072C182.005 28.5322 181.577 28.3447 181.073 28.3447C180.534 28.3447 180.089 28.541 179.737 28.9336C179.386 29.3262 179.213 29.8594 179.219 30.5332H182.91ZM193.176 36H190.706V26.6924C189.804 27.5361 188.74 28.1602 187.516 28.5645V26.3232C188.16 26.1123 188.86 25.7139 189.616 25.1279C190.372 24.5361 190.891 23.8477 191.172 23.0625H193.176V36ZM205.243 26.2705L202.853 26.5342C202.794 26.042 202.642 25.6787 202.396 25.4443C202.149 25.21 201.83 25.0928 201.438 25.0928C200.916 25.0928 200.474 25.3271 200.11 25.7959C199.753 26.2646 199.527 27.2402 199.434 28.7227C200.049 27.9961 200.813 27.6328 201.728 27.6328C202.759 27.6328 203.641 28.0254 204.373 28.8105C205.111 29.5957 205.48 30.6094 205.48 31.8516C205.48 33.1699 205.094 34.2275 204.32 35.0244C203.547 35.8213 202.554 36.2197 201.341 36.2197C200.04 36.2197 198.971 35.7158 198.133 34.708C197.295 33.6943 196.876 32.0361 196.876 29.7334C196.876 27.3721 197.312 25.6699 198.186 24.627C199.059 23.584 200.192 23.0625 201.587 23.0625C202.565 23.0625 203.374 23.3379 204.013 23.8887C204.657 24.4336 205.067 25.2275 205.243 26.2705ZM199.645 31.6582C199.645 32.4609 199.829 33.082 200.198 33.5215C200.567 33.9551 200.989 34.1719 201.464 34.1719C201.921 34.1719 202.302 33.9932 202.606 33.6357C202.911 33.2783 203.063 32.6924 203.063 31.8779C203.063 31.04 202.899 30.4277 202.571 30.041C202.243 29.6484 201.833 29.4521 201.341 29.4521C200.866 29.4521 200.465 29.6396 200.137 30.0146C199.809 30.3838 199.645 30.9316 199.645 31.6582Z" fill="#FF6F00"/>
</svg>
